<svg width="20" height="16" viewBox="0 0 20 16" fill="none" xmlns="http://www.w3.org/2000/svg">
<path d="M11.5414 1.54175V3.55841" stroke="#7C7C7C" stroke-width="1.5" stroke-linecap="round" stroke-linejoin="round"/>
<path d="M11.5414 12.7998V14.4865" stroke="#7C7C7C" stroke-width="1.5" stroke-linecap="round" stroke-linejoin="round"/>
<path d="M11.5414 9.93693V5.91943" stroke="#7C7C7C" stroke-width="1.5" stroke-linecap="round" stroke-linejoin="round"/>
<path fill-rule="evenodd" clip-rule="evenodd" d="M15.5851 14.6666C17.1035 14.6666 18.3334 13.452 18.3334 11.9525V9.79212C17.3286 9.79212 16.5195 8.99301 16.5195 8.00078C16.5195 7.00854 17.3286 6.20858 18.3334 6.20858L18.3325 4.0473C18.3325 2.54779 17.1018 1.33325 15.5843 1.33325H4.41578C2.89826 1.33325 1.66756 2.54779 1.66756 4.0473L1.66669 6.27896C2.67142 6.27896 3.48059 7.00854 3.48059 8.00078C3.48059 8.99301 2.67142 9.79212 1.66669 9.79212V11.9525C1.66669 13.452 2.89652 14.6666 4.41491 14.6666H15.5851Z" stroke="#7C7C7C" stroke-width="1.5" stroke-linecap="round" stroke-linejoin="round"/>
</svg>
