<svg width="17" height="18" viewBox="0 0 17 18" fill="none" xmlns="http://www.w3.org/2000/svg">
<path fill-rule="evenodd" clip-rule="evenodd" d="M15.6067 5.45462L15.0881 4.55454C14.6492 3.79294 13.6768 3.5302 12.9141 3.9672C12.5511 4.18106 12.1179 4.24173 11.7101 4.13584C11.3023 4.02995 10.9534 3.7662 10.7402 3.40275C10.6031 3.17173 10.5294 2.9086 10.5267 2.63997C10.539 2.20929 10.3765 1.79194 10.0762 1.48299C9.77589 1.17405 9.36331 0.999823 8.93245 1H7.88745C7.46534 0.999995 7.06062 1.1682 6.76286 1.46739C6.4651 1.76658 6.29884 2.1721 6.30087 2.5942C6.28836 3.46571 5.57826 4.16561 4.70667 4.16552C4.43804 4.16273 4.17491 4.08906 3.94389 3.95195C3.18125 3.51495 2.20879 3.77768 1.76998 4.53928L1.21315 5.45462C0.774871 6.21526 1.03403 7.18711 1.79286 7.62853C2.28612 7.9133 2.58997 8.4396 2.58997 9.00915C2.58997 9.57871 2.28612 10.105 1.79286 10.3898C1.03499 10.8282 0.775552 11.7977 1.21315 12.5561L1.73947 13.4638C1.94507 13.8348 2.29003 14.1085 2.69802 14.2245C3.10602 14.3404 3.5434 14.289 3.91338 14.0816C4.2771 13.8694 4.71052 13.8112 5.11731 13.9201C5.52411 14.029 5.87056 14.2958 6.07967 14.6613C6.21678 14.8923 6.29045 15.1555 6.29324 15.4241C6.29324 16.3046 7.00699 17.0183 7.88745 17.0183H8.93245C9.80993 17.0183 10.5225 16.3092 10.5267 15.4317C10.5246 15.0083 10.6919 14.6016 10.9913 14.3022C11.2907 14.0028 11.6974 13.8355 12.1209 13.8375C12.3888 13.8447 12.6509 13.9181 12.8836 14.0511C13.6443 14.4894 14.6161 14.2302 15.0575 13.4714L15.6067 12.5561C15.8193 12.1912 15.8777 11.7566 15.7689 11.3486C15.6601 10.9406 15.3931 10.5927 15.027 10.3822C14.661 10.1716 14.394 9.82375 14.2852 9.41572C14.1764 9.00769 14.2347 8.57312 14.4473 8.20824C14.5856 7.96688 14.7857 7.76677 15.027 7.62853C15.7813 7.18735 16.0399 6.22118 15.6067 5.46224V5.45462Z" stroke="#F2F2F2" stroke-width="1.5" stroke-linecap="round" stroke-linejoin="round"/>
<path d="M10.6106 9.00915C10.6106 10.2224 9.62702 11.2059 8.41376 11.2059C7.2005 11.2059 6.21697 10.2224 6.21697 9.00915C6.21697 7.7959 7.2005 6.81236 8.41376 6.81236C9.62702 6.81236 10.6106 7.7959 10.6106 9.00915Z" stroke="#F2F2F2" stroke-width="1.5" stroke-linecap="round" stroke-linejoin="round"/>
</svg>
