<svg width="18" height="18" viewBox="0 0 18 18" fill="none" xmlns="http://www.w3.org/2000/svg">
<path d="M8.99589 12.8974V10.7832" stroke="#7C7C7C" stroke-width="1.5" stroke-linecap="round" stroke-linejoin="round"/>
<path fill-rule="evenodd" clip-rule="evenodd" d="M14.1582 3.44189C15.5666 3.44189 16.6999 4.58356 16.6999 5.99189V8.85856C14.6499 10.0586 11.9416 10.7836 8.99157 10.7836C6.04157 10.7836 3.34157 10.0586 1.29156 8.85856V5.98356C1.29156 4.57523 2.43323 3.44189 3.84157 3.44189H14.1582Z" stroke="#7C7C7C" stroke-width="1.5" stroke-linecap="round" stroke-linejoin="round"/>
<path d="M11.9126 3.43817V3.13317C11.9126 2.1165 11.0876 1.2915 10.0709 1.2915H7.92089C6.90422 1.2915 6.07922 2.1165 6.07922 3.13317V3.43817" stroke="#7C7C7C" stroke-width="1.5" stroke-linecap="round" stroke-linejoin="round"/>
<path d="M1.31201 11.9026L1.46951 13.9934C1.57618 15.4026 2.75035 16.4918 4.16285 16.4918H13.8287C15.2412 16.4918 16.4153 15.4026 16.522 13.9934L16.6795 11.9026" stroke="#7C7C7C" stroke-width="1.5" stroke-linecap="round" stroke-linejoin="round"/>
</svg>
