<svg width="18" height="20" viewBox="0 0 18 20" fill="none" xmlns="http://www.w3.org/2000/svg">
<path d="M6.63093 17.3096V14.754C6.63092 14.1039 7.16085 13.5758 7.81743 13.5714H10.2225C10.8822 13.5714 11.417 14.1009 11.417 14.754V14.754V17.3175C11.4169 17.8694 11.8618 18.3205 12.4191 18.3334H14.0225C15.6209 18.3334 16.9166 17.0506 16.9166 15.4683V15.4683V8.19828C16.908 7.57577 16.6128 6.99121 16.1149 6.61094L10.6314 2.23783C9.6707 1.47639 8.30509 1.47639 7.34443 2.23783L1.88494 6.61888C1.38513 6.9976 1.08941 7.58314 1.08325 8.20621V15.4683C1.08325 17.0506 2.37898 18.3334 3.97734 18.3334H5.58072C6.15188 18.3334 6.6149 17.875 6.6149 17.3096V17.3096" stroke="#7C7C7C" stroke-width="1.5" stroke-linecap="round" stroke-linejoin="round"/>
</svg>
