<svg width="21" height="24" viewBox="0 0 21 24" fill="none" xmlns="http://www.w3.org/2000/svg">
<mask id="mask0_344_418" style="mask-type:luminance" maskUnits="userSpaceOnUse" x="0" y="0" width="21" height="19">
<path fill-rule="evenodd" clip-rule="evenodd" d="M0.250122 0.083252H20.2884V18.8769H0.250122V0.083252Z" fill="white"/>
</mask>
<g mask="url(#mask0_344_418)">
<path fill-rule="evenodd" clip-rule="evenodd" d="M10.2677 1.70825C6.48147 1.70825 3.84247 4.67442 3.84247 7.33617C3.84247 9.58842 3.21739 10.6295 2.66489 11.5482C2.2218 12.2859 1.87189 12.8688 1.87189 14.1352C2.0528 16.1783 3.40155 17.2519 10.2677 17.2519C17.096 17.2519 18.487 16.1307 18.6668 14.0648C18.6636 12.8688 18.3136 12.2859 17.8706 11.5482C17.3181 10.6295 16.693 9.58842 16.693 7.33617C16.693 4.67442 14.054 1.70825 10.2677 1.70825ZM10.2677 18.8769C5.20205 18.8769 0.623887 18.5194 0.250137 14.2045C0.246887 12.4192 0.791803 11.5113 1.2728 10.7118C1.75922 9.9015 2.21747 9.13775 2.21747 7.33617C2.21747 3.83375 5.4523 0.083252 10.2677 0.083252C15.0831 0.083252 18.318 3.83375 18.318 7.33617C18.318 9.13775 18.7762 9.9015 19.2626 10.7118C19.7436 11.5113 20.2886 12.4192 20.2886 14.1352C19.9105 18.5194 15.3334 18.8769 10.2677 18.8769Z" fill="black"/>
</g>
<path fill-rule="evenodd" clip-rule="evenodd" d="M10.2149 23.3749H10.2127C8.99827 23.3738 7.84886 22.8387 6.97677 21.8669C6.67669 21.5343 6.70377 21.0197 7.03744 20.7207C7.37111 20.4196 7.88461 20.4467 8.18469 20.7814C8.74586 21.4065 9.46627 21.7499 10.2138 21.7499H10.2149C10.9656 21.7499 11.6893 21.4065 12.2515 20.7803C12.5527 20.4477 13.0662 20.4207 13.3988 20.7207C13.7324 21.0208 13.7595 21.5354 13.4594 21.868C12.5841 22.8397 11.4325 23.3749 10.2149 23.3749Z" fill="black"/>
</svg>
