<svg width="18" height="18" viewBox="0 0 18 18" fill="none" xmlns="http://www.w3.org/2000/svg">
<path fill-rule="evenodd" clip-rule="evenodd" d="M16.3389 5.35305L15.8202 4.45298C15.3814 3.69138 14.4089 3.42864 13.6463 3.86564V3.86564C13.2832 4.07949 12.85 4.14017 12.4422 4.03428C12.0344 3.92839 11.6855 3.66464 11.4723 3.30118C11.3352 3.07016 11.2616 2.80704 11.2588 2.53841V2.53841C11.2711 2.10773 11.1087 1.69038 10.8083 1.38143C10.508 1.07249 10.0954 0.89826 9.66457 0.898438H8.61956C8.19745 0.898433 7.79274 1.06664 7.49498 1.36583C7.19722 1.66502 7.03096 2.07053 7.03299 2.49264V2.49264C7.02048 3.36415 6.31038 4.06405 5.43879 4.06396C5.17016 4.06117 4.90703 3.98749 4.67601 3.85038V3.85038C3.91336 3.41339 2.94091 3.67612 2.5021 4.43772L1.94527 5.35305C1.50699 6.1137 1.76615 7.08555 2.52498 7.52697V7.52697C3.01823 7.81174 3.32209 8.33803 3.32209 8.90759C3.32209 9.47715 3.01823 10.0034 2.52498 10.2882V10.2882C1.76711 10.7267 1.50767 11.6961 1.94527 12.4545V12.4545L2.47158 13.3622C2.67719 13.7332 3.02215 14.007 3.43014 14.1229C3.83813 14.2389 4.27551 14.1875 4.6455 13.9801V13.9801C5.00921 13.7678 5.44264 13.7097 5.84943 13.8185C6.25622 13.9274 6.60268 14.1942 6.81178 14.5598C6.94889 14.7908 7.02257 15.0539 7.02536 15.3225V15.3225C7.02536 16.203 7.73911 16.9167 8.61956 16.9167H9.66457C10.5421 16.9168 11.2546 16.2076 11.2588 15.3302V15.3302C11.2567 14.9067 11.424 14.5001 11.7234 14.2006C12.0229 13.9012 12.4295 13.7339 12.853 13.736C13.121 13.7431 13.383 13.8165 13.6157 13.9495V13.9495C14.3764 14.3878 15.3482 14.1287 15.7897 13.3698V13.3698L16.3389 12.4545C16.5514 12.0896 16.6098 11.655 16.501 11.247C16.3922 10.839 16.1252 10.4912 15.7592 10.2806V10.2806C15.3931 10.07 15.1261 9.72219 15.0173 9.31416C14.9085 8.90613 14.9669 8.47156 15.1794 8.10668C15.3177 7.86532 15.5178 7.66521 15.7592 7.52697V7.52697C16.5134 7.08579 16.772 6.11962 16.3389 5.36068V5.36068V5.35305Z" stroke="#7C7C7C" stroke-width="1.5" stroke-linecap="round" stroke-linejoin="round"/>
<ellipse cx="9.14589" cy="8.90749" rx="2.1968" ry="2.1968" stroke="#7C7C7C" stroke-width="1.5" stroke-linecap="round" stroke-linejoin="round"/>
</svg>
