<svg width="20" height="16" viewBox="0 0 20 16" fill="none" xmlns="http://www.w3.org/2000/svg">
<path d="M14.9064 7.08044C16.0689 6.91711 16.9639 5.92044 16.9664 4.71294C16.9664 3.52294 16.0989 2.53628 14.9614 2.34961" stroke="#7C7C7C" stroke-width="1.5" stroke-linecap="round" stroke-linejoin="round"/>
<path d="M16.4404 9.87524C17.5663 10.0436 18.3521 10.4377 18.3521 11.2502C18.3521 11.8094 17.9821 12.1727 17.3838 12.4011" stroke="#7C7C7C" stroke-width="1.5" stroke-linecap="round" stroke-linejoin="round"/>
<path fill-rule="evenodd" clip-rule="evenodd" d="M9.90559 10.2197C7.22726 10.2197 4.93976 10.6256 4.93976 12.2464C4.93976 13.8664 7.21309 14.2839 9.90559 14.2839C12.5839 14.2839 14.8706 13.8822 14.8706 12.2606C14.8706 10.6389 12.5981 10.2197 9.90559 10.2197Z" stroke="#7C7C7C" stroke-width="1.5" stroke-linecap="round" stroke-linejoin="round"/>
<path fill-rule="evenodd" clip-rule="evenodd" d="M9.90561 7.9065C11.6631 7.9065 13.0881 6.48234 13.0881 4.724C13.0881 2.9665 11.6631 1.5415 9.90561 1.5415C8.14811 1.5415 6.72311 2.9665 6.72311 4.724C6.71644 6.47567 8.13061 7.90067 9.88227 7.9065H9.90561Z" stroke="#7C7C7C" stroke-width="1.5" stroke-linecap="round" stroke-linejoin="round"/>
<path d="M4.90399 7.08044C3.74066 6.91711 2.84649 5.92044 2.84399 4.71294C2.84399 3.52294 3.71149 2.53628 4.84899 2.34961" stroke="#7C7C7C" stroke-width="1.5" stroke-linecap="round" stroke-linejoin="round"/>
<path d="M3.36992 9.87524C2.24409 10.0436 1.45825 10.4377 1.45825 11.2502C1.45825 11.8094 1.82825 12.1727 2.42659 12.4011" stroke="#7C7C7C" stroke-width="1.5" stroke-linecap="round" stroke-linejoin="round"/>
</svg>
